<svg width="20" height="10" viewBox="0 0 20 10" xmlns="http://www.w3.org/2000/svg">
<path d="M1.9558 4.38C2.2358 2.91 3.6158 1.9 5.1158 1.9H8.0458C8.5658 1.9 8.9958 1.47 8.9958 0.95C8.9958 0.43 8.5658 0 8.0458 0H5.2158C2.6058 0 0.275803 1.91 0.0258029 4.51C-0.264197 7.49 2.0758 10 4.9958 10H8.0458C8.5658 10 8.9958 9.57 8.9958 9.05C8.9958 8.53 8.5658 8.1 8.0458 8.1H4.9958C3.0858 8.1 1.5758 6.36 1.9558 4.38ZM6.9958 6H12.9958C13.5458 6 13.9958 5.55 13.9958 5C13.9958 4.45 13.5458 4 12.9958 4H6.9958C6.4458 4 5.9958 4.45 5.9958 5C5.9958 5.55 6.4458 6 6.9958 6ZM14.7758 0H11.9458C11.4258 0 10.9958 0.43 10.9958 0.95C10.9958 1.47 11.4258 1.9 11.9458 1.9H14.8758C16.3758 1.9 17.7558 2.91 18.0358 4.38C18.4158 6.36 16.9058 8.1 14.9958 8.1H11.9458C11.4258 8.1 10.9958 8.53 10.9958 9.05C10.9958 9.57 11.4258 10 11.9458 10H14.9958C17.9158 10 20.2558 7.49 19.9758 4.51C19.7258 1.91 17.3858 0 14.7758 0Z" fill="#A2AB9C"/>
</svg>
